<svg width="72" height="72" viewBox="0 0 72 72" fill="none" xmlns="http://www.w3.org/2000/svg">
<path d="M51.75 10.125H20.25C18.1614 10.125 16.1584 10.9547 14.6815 12.4315C13.2047 13.9084 12.375 15.9114 12.375 18V58.5C12.375 59.3951 12.7306 60.2535 13.3635 60.8865C13.9964 61.5194 14.8549 61.875 15.75 61.875H22.5C23.3951 61.875 24.2536 61.5194 24.8865 60.8865C25.5194 60.2535 25.875 59.3951 25.875 58.5V52.875H46.125V58.5C46.125 59.3951 46.4806 60.2535 47.1135 60.8865C47.7465 61.5194 48.6049 61.875 49.5 61.875H56.25C57.1451 61.875 58.0035 61.5194 58.6365 60.8865C59.2694 60.2535 59.625 59.3951 59.625 58.5V18C59.625 15.9114 58.7953 13.9084 57.3185 12.4315C55.8416 10.9547 53.8386 10.125 51.75 10.125ZM14.625 50.625V32.625H57.375V50.625H14.625ZM57.375 30.375H14.625V21.375H57.375V30.375ZM23.625 58.5C23.625 58.7984 23.5065 59.0845 23.2955 59.2955C23.0845 59.5065 22.7984 59.625 22.5 59.625H15.75C15.4516 59.625 15.1655 59.5065 14.9545 59.2955C14.7435 59.0845 14.625 58.7984 14.625 58.5V52.875H23.625V58.5ZM56.25 59.625H49.5C49.2016 59.625 48.9155 59.5065 48.7045 59.2955C48.4935 59.0845 48.375 58.7984 48.375 58.5V52.875H57.375V58.5C57.375 58.7984 57.2565 59.0845 57.0455 59.2955C56.8345 59.5065 56.5484 59.625 56.25 59.625ZM57.375 19.125H14.625V18C14.625 16.5082 15.2176 15.0774 16.2725 14.0225C17.3274 12.9676 18.7582 12.375 20.25 12.375H51.75C53.2418 12.375 54.6726 12.9676 55.7275 14.0225C56.7824 15.0774 57.375 16.5082 57.375 18V19.125ZM28.125 41.625C28.125 42.07 27.993 42.505 27.7458 42.875C27.4986 43.245 27.1472 43.5334 26.736 43.7037C26.3249 43.874 25.8725 43.9186 25.436 43.8318C24.9996 43.7449 24.5987 43.5307 24.284 43.216C23.9693 42.9013 23.755 42.5004 23.6682 42.064C23.5814 41.6275 23.626 41.1751 23.7963 40.764C23.9666 40.3528 24.255 40.0014 24.625 39.7542C24.995 39.507 25.43 39.375 25.875 39.375C26.4717 39.375 27.044 39.6121 27.466 40.034C27.8879 40.456 28.125 41.0283 28.125 41.625ZM48.375 41.625C48.375 42.07 48.243 42.505 47.9958 42.875C47.7486 43.245 47.3972 43.5334 46.986 43.7037C46.5749 43.874 46.1225 43.9186 45.686 43.8318C45.2496 43.7449 44.8487 43.5307 44.534 43.216C44.2193 42.9013 44.0051 42.5004 43.9182 42.064C43.8314 41.6275 43.876 41.1751 44.0463 40.764C44.2166 40.3528 44.505 40.0014 44.875 39.7542C45.245 39.507 45.68 39.375 46.125 39.375C46.7217 39.375 47.294 39.6121 47.716 40.034C48.1379 40.456 48.375 41.0283 48.375 41.625ZM68.625 22.5V29.25C68.625 29.5484 68.5065 29.8345 68.2955 30.0455C68.0845 30.2565 67.7984 30.375 67.5 30.375C67.2016 30.375 66.9155 30.2565 66.7045 30.0455C66.4935 29.8345 66.375 29.5484 66.375 29.25V22.5C66.375 22.2016 66.4935 21.9155 66.7045 21.7045C66.9155 21.4935 67.2016 21.375 67.5 21.375C67.7984 21.375 68.0845 21.4935 68.2955 21.7045C68.5065 21.9155 68.625 22.2016 68.625 22.5ZM5.625 22.5V29.25C5.625 29.5484 5.50647 29.8345 5.29549 30.0455C5.08452 30.2565 4.79837 30.375 4.5 30.375C4.20163 30.375 3.91548 30.2565 3.7045 30.0455C3.49353 29.8345 3.375 29.5484 3.375 29.25V22.5C3.375 22.2016 3.49353 21.9155 3.7045 21.7045C3.91548 21.4935 4.20163 21.375 4.5 21.375C4.79837 21.375 5.08452 21.4935 5.29549 21.7045C5.50647 21.9155 5.625 22.2016 5.625 22.5Z" fill="black"/>
</svg>
