<svg width="58" height="56" viewBox="0 0 58 56" fill="none" xmlns="http://www.w3.org/2000/svg">
<path d="M56 23.3123H53.1228C52.6763 17.2197 49.941 11.5217 45.4663 7.36295C40.9916 3.20414 35.1089 0.892578 29 0.892578C22.8911 0.892578 17.0084 3.20414 12.5337 7.36295C8.059 11.5217 5.32367 17.2197 4.87719 23.3123H2C1.55245 23.3123 1.12322 23.4901 0.806757 23.8065C0.490289 24.123 0.3125 24.5522 0.3125 24.9998C0.322535 30.3055 1.79877 35.5053 4.57817 40.0248C7.35756 44.5443 11.332 48.2077 16.0625 50.6104V51.9998C16.0625 53.0441 16.4773 54.0456 17.2158 54.784C17.9542 55.5224 18.9557 55.9373 20 55.9373H38C39.0443 55.9373 40.0458 55.5224 40.7842 54.784C41.5227 54.0456 41.9375 53.0441 41.9375 51.9998V50.6104C46.668 48.2077 50.6424 44.5443 53.4218 40.0248C56.2012 35.5053 57.6775 30.3055 57.6875 24.9998C57.6875 24.5522 57.5097 24.123 57.1932 23.8065C56.8768 23.4901 56.4476 23.3123 56 23.3123ZM42.005 8.76885C42.8217 9.42273 43.5879 10.1373 44.2972 10.9064C41.1648 11.8815 38.2639 13.4844 35.7713 15.6173C33.2786 17.7502 31.2465 20.3684 29.7987 23.3123H20.3769C21.7059 19.0794 24.3487 15.3799 27.922 12.7503C31.4953 10.1206 35.8134 8.69748 40.25 8.68729C40.835 8.68729 41.4228 8.71823 42.005 8.76885ZM46.5219 13.7892C48.3616 16.6505 49.4668 19.9215 49.7394 23.3123H33.635C35.046 20.9512 36.9117 18.8936 39.1238 17.2589C41.3359 15.6242 43.8506 14.4448 46.5219 13.7892ZM29 4.18729C31.5781 4.18322 34.1343 4.66012 36.5375 5.59354C31.8956 6.32628 27.5661 8.3905 24.0744 11.5357C20.5828 14.6809 18.079 18.7719 16.8669 23.3123H8.26062C8.69012 18.1048 11.0604 13.2486 14.9016 9.70638C18.7429 6.16413 23.7748 4.19429 29 4.18729ZM39.5469 48.0173C39.2529 48.152 39.0038 48.3684 38.8293 48.6406C38.6548 48.9129 38.5622 49.2295 38.5625 49.5529V51.9998C38.5625 52.149 38.5032 52.292 38.3977 52.3975C38.2923 52.503 38.1492 52.5623 38 52.5623H20C19.8508 52.5623 19.7077 52.503 19.6023 52.3975C19.4968 52.292 19.4375 52.149 19.4375 51.9998V49.5529C19.4378 49.2295 19.3452 48.9129 19.1707 48.6406C18.9962 48.3684 18.7471 48.152 18.4531 48.0173C14.3135 46.1082 10.7636 43.1207 8.17562 39.3679C5.58764 35.6151 4.05687 31.2352 3.74375 26.6873H54.2563C53.9431 31.2352 52.4124 35.6151 49.8244 39.3679C47.2364 43.1207 43.6865 46.1082 39.5469 48.0173Z" fill="#534B45"/>
</svg>
