<svg width="72" height="72" viewBox="0 0 72 72" fill="none" xmlns="http://www.w3.org/2000/svg">
<path d="M25.1998 14.4002C25.1998 12.4906 25.9584 10.6593 27.3086 9.30903C28.6589 7.95876 30.4902 7.2002 32.3998 7.2002C34.3094 7.2002 36.1407 7.95876 37.491 9.30903C38.8412 10.6593 39.5998 12.4906 39.5998 14.4002V18.0002H48.1642C50.0736 18.0006 51.9047 18.7594 53.2546 20.1098L60.6706 27.5258C60.8382 27.693 60.9712 27.8916 61.062 28.1103C61.1527 28.329 61.1994 28.5634 61.1994 28.8002C61.1994 29.037 61.1527 29.2714 61.062 29.4901C60.9712 29.7088 60.8382 29.9074 60.6706 30.0746L53.2546 37.4906C51.9047 38.8409 50.0736 39.5998 48.1642 39.6002H39.5998V61.2002C39.5998 62.155 39.2205 63.0707 38.5454 63.7458C37.8703 64.4209 36.9546 64.8002 35.9998 64.8002H28.7998C27.845 64.8002 26.9294 64.4209 26.2542 63.7458C25.5791 63.0707 25.1998 62.155 25.1998 61.2002V39.6002H17.9998C16.0902 39.6002 14.2589 38.8416 12.9086 37.4914C11.5584 36.1411 10.7998 34.3098 10.7998 32.4002V25.2002C10.7998 23.2906 11.5584 21.4593 12.9086 20.109C14.2589 18.7588 16.0902 18.0002 17.9998 18.0002H25.1998V14.4002ZM28.7998 18.0002H35.9998V14.4002C35.9998 13.4454 35.6205 12.5297 34.9454 11.8546C34.2703 11.1795 33.3546 10.8002 32.3998 10.8002C31.445 10.8002 30.5294 11.1795 29.8542 11.8546C29.1791 12.5297 28.7998 13.4454 28.7998 14.4002V18.0002ZM28.7998 39.6002V61.2002H35.9998V39.6002H28.7998ZM14.3998 25.2002V32.4002C14.3998 33.355 14.7791 34.2706 15.4542 34.9458C16.1294 35.6209 17.045 36.0002 17.9998 36.0002H48.1642C49.1189 36 50.0344 35.6206 50.7094 34.9454L56.8546 28.8002L50.7094 22.655C50.0344 21.9798 49.1189 21.6004 48.1642 21.6002H17.9998C17.045 21.6002 16.1294 21.9795 15.4542 22.6546C14.7791 23.3297 14.3998 24.2454 14.3998 25.2002Z" fill="black"/>
</svg>
