<svg width="72" height="72" viewBox="0 0 72 72" fill="none" xmlns="http://www.w3.org/2000/svg">
<path d="M20.25 33.75C20.25 34.195 20.118 34.63 19.8708 35C19.6236 35.37 19.2722 35.6584 18.861 35.8287C18.4499 35.999 17.9975 36.0436 17.561 35.9568C17.1246 35.87 16.7237 35.6557 16.409 35.341C16.0943 35.0263 15.88 34.6254 15.7932 34.189C15.7064 33.7525 15.751 33.3001 15.9213 32.889C16.0916 32.4778 16.38 32.1264 16.75 31.8792C17.12 31.632 17.555 31.5 18 31.5C18.5967 31.5 19.169 31.7371 19.591 32.159C20.0129 32.581 20.25 33.1533 20.25 33.75ZM66.375 33.75V58.5C66.375 59.3951 66.0194 60.2535 65.3865 60.8865C64.7535 61.5194 63.8951 61.875 63 61.875H31.5C30.6049 61.875 29.7464 61.5194 29.1135 60.8865C28.4806 60.2535 28.125 59.3951 28.125 58.5V47.4919C25.9031 53.5106 22.2188 57.375 18 57.375C11.0616 57.375 5.625 46.9969 5.625 33.75C5.625 20.5031 11.0616 10.125 18 10.125H54C60.9384 10.125 66.375 20.5031 66.375 33.75ZM28.125 33.75C28.125 22.1625 23.4872 12.375 18 12.375C12.5128 12.375 7.875 22.1625 7.875 33.75C7.875 45.3375 12.5128 55.125 18 55.125C23.4872 55.125 28.125 45.3375 28.125 33.75ZM64.125 58.5V34.875H58.5C58.2016 34.875 57.9155 34.7565 57.7045 34.5455C57.4935 34.3345 57.375 34.0484 57.375 33.75C57.375 33.4516 57.4935 33.1655 57.7045 32.9545C57.9155 32.7435 58.2016 32.625 58.5 32.625H64.125C63.8438 21.5381 59.3241 12.375 54.0141 12.375H23.3578C27.3769 15.975 30.1472 23.5575 30.3609 32.625H35.9859C36.2843 32.625 36.5705 32.7435 36.7814 32.9545C36.9924 33.1655 37.1109 33.4516 37.1109 33.75C37.1109 34.0484 36.9924 34.3345 36.7814 34.5455C36.5705 34.7565 36.2843 34.875 35.9859 34.875H30.375V58.5C30.375 58.7984 30.4935 59.0845 30.7045 59.2955C30.9155 59.5065 31.2016 59.625 31.5 59.625H63C63.2984 59.625 63.5845 59.5065 63.7955 59.2955C64.0065 59.0845 64.125 58.7984 64.125 58.5ZM49.5 32.625H45C44.7016 32.625 44.4155 32.7435 44.2045 32.9545C43.9935 33.1655 43.875 33.4516 43.875 33.75C43.875 34.0484 43.9935 34.3345 44.2045 34.5455C44.4155 34.7565 44.7016 34.875 45 34.875H49.5C49.7984 34.875 50.0845 34.7565 50.2955 34.5455C50.5065 34.3345 50.625 34.0484 50.625 33.75C50.625 33.4516 50.5065 33.1655 50.2955 32.9545C50.0845 32.7435 49.7984 32.625 49.5 32.625Z" fill="black"/>
</svg>
